<svg xmlns="http://www.w3.org/2000/svg" viewBox="0 0 86.196 71.172"><defs><style>.a{fill:#ef4b53;}.b{fill:#f47682;}</style></defs><title>heart</title><path class="a" d="M82.948,59.688l.836-.827A8.3,8.3,0,1,0,72.05,47.127l-.827.836-.835-.836A8.294,8.294,0,0,0,58.662,58.861l.828.827L70.8,71a.6.6,0,0,0,.852,0l11.3-11.307"/><path class="b" d="M65.022,46.185s-6.932-.549-7.652,7.309A7.578,7.578,0,0,1,65.228,48s1.594.16,1.59-.832C66.814,46.088,65.022,46.185,65.022,46.185Z"/><path class="a" d="M43.624,24.465l1.365-1.351A13.553,13.553,0,0,0,25.823,3.947L24.472,5.312,23.107,3.947A13.548,13.548,0,0,0,3.954,23.114l1.351,1.351,18.471,18.47a.983.983,0,0,0,1.391,0l18.457-18.47"/><path class="b" d="M14.343,2.408s-11.323-.9-12.5,11.94A12.38,12.38,0,0,1,14.679,5.379s2.6.262,2.6-1.358C17.269,2.251,14.343,2.408,14.343,2.408Z"/></svg>