<svg xmlns="http://www.w3.org/2000/svg" viewBox="0 0 86.196 71.172"><defs><style>.a{fill:#ef4b53;}.b{fill:#f47682;}</style></defs><title>heart-rev</title><path class="a" d="M26.707,59.688l.835-.827A8.3,8.3,0,0,0,15.809,47.127l-.828.836-.835-.836A8.294,8.294,0,0,0,2.421,58.861l.827.827L14.555,71a.6.6,0,0,0,.852,0l11.3-11.307"/><path class="b" d="M8.78,46.185s-6.931-.549-7.652,7.309A7.578,7.578,0,0,1,8.986,48s1.594.16,1.59-.832C10.572,46.088,8.78,46.185,8.78,46.185Z"/><path class="a" d="M80.891,24.465l1.365-1.351A13.553,13.553,0,0,0,63.089,3.947L61.738,5.312,60.373,3.947A13.548,13.548,0,0,0,41.221,23.114l1.351,1.351,18.471,18.47a.983.983,0,0,0,1.391,0l18.457-18.47"/><path class="b" d="M51.609,2.408s-11.322-.9-12.5,11.94A12.382,12.382,0,0,1,51.946,5.379s2.6.262,2.6-1.358C54.536,2.251,51.609,2.408,51.609,2.408Z"/></svg>